<svg xmlns="http://www.w3.org/2000/svg" width="24" height="24" viewBox="0 0 24 24" fill="none">
  <path fill="#34BFA3" d="M4.1 12c1.9-3.25 4.6-4.88 8.1-4.88 3.35 0 5.72 1.55 7.1 4.65.07.16.07.34 0 .5-1.38 3.1-3.75 4.65-7.1 4.65-3.5 0-6.2-1.63-8.1-4.88a.62.62 0 0 1 0-.64Z"/>
  <path fill="#176B5D" d="M18.92 12 21 9.98c.36-.35.96-.1.96.4v3.24c0 .5-.6.75-.96.4L18.92 12Z"/>
  <circle cx="9" cy="11.2" r="1.05" fill="#0D4F45"/>
  <path stroke="#D8F5EE" stroke-linecap="round" stroke-width="1.5" d="M12.1 9.4c1.5.52 2.35 1.4 2.55 2.6-.2 1.2-1.05 2.08-2.55 2.6"/>
</svg>
